<svg id="Layer_1" data-name="Layer 1" xmlns="http://www.w3.org/2000/svg" viewBox="0 0 179.82 113.95"><defs><style>.cls-1{fill:#709957;}</style></defs><title>icon--street-roadway</title><path class="cls-1" d="M10,0h96.48a10,10,0,0,1,10,10V86.15a10,10,0,0,1-10,10H47.2a16.51,16.51,0,0,0-2.42-7.49h61.66a2.48,2.48,0,0,0,2.46-2.46V10a2.48,2.48,0,0,0-2.46-2.47H10A2.48,2.48,0,0,0,7.49,10V86.15A2.48,2.48,0,0,0,10,88.62h6.53a16.51,16.51,0,0,0-2.42,7.49H10a10,10,0,0,1-10-10V10A10,10,0,0,1,10,0Z"/><path class="cls-1" d="M112.65,54.18h56.17a11,11,0,0,1,11,11V85.12a11,11,0,0,1-11,11h-11a16.51,16.51,0,0,0-2.42-7.49h13.45a3.52,3.52,0,0,0,3.5-3.5V65.18a3.52,3.52,0,0,0-3.5-3.5H112.65V54.18Zm12,41.93a16.51,16.51,0,0,1,2.42-7.49H100.23v7.49Z"/><path class="cls-1" d="M112.65,22.36a3.75,3.75,0,0,0,0,7.49h24.91l19,28.63a3.74,3.74,0,0,0,6.23-4.13l-19.94-30.1a3.74,3.74,0,0,0-3.26-1.89Z"/><path class="cls-1" d="M141.23,80.72a16.62,16.62,0,1,1-11.75,4.87,16.56,16.56,0,0,1,11.75-4.87Zm6.45,10.16a9.12,9.12,0,1,0,2.67,6.45A9.09,9.09,0,0,0,147.68,90.88Z"/><path class="cls-1" d="M30.63,80.72a16.61,16.61,0,1,1-11.75,4.87,16.56,16.56,0,0,1,11.75-4.87Zm6.45,10.16a9.12,9.12,0,1,0,2.67,6.45A9.09,9.09,0,0,0,37.08,90.88Z"/><path class="cls-1" d="M176.07,74.2a3.75,3.75,0,0,0,0-7.49H159.45a3.75,3.75,0,0,0,0,7.49Z"/></svg>