<svg id="Layer_1" data-name="Layer 1" xmlns="http://www.w3.org/2000/svg" viewBox="0 0 179.81 179.81"><defs><style>.cls-1{fill:#709957;}</style></defs><title>icon--perimeter-security</title><path class="cls-1" d="M127.56,1.08l50.67,50,1.11,2.65.47,71.19v1.54l-1.08,1.09-50,50.67-2.65,1.11-71.19.47H53.35l-1.09-1.08-50.67-50L.48,126.08,0,54.89V53.35l1.08-1.09,50-50.67L53.73.48,124.92,0h1.54l1.09,1.08Zm44.33,54.25L123.41,7.48l-68.09.45L7.48,56.4l.45,68.09L56.4,172.33l68.09-.45,47.84-48.47Z"/><path class="cls-1" d="M64.21,80.07V54.63L63.27,54A8.85,8.85,0,0,0,59,52.73a1.91,1.91,0,0,0-1.64.78,7.91,7.91,0,0,0-1,4.46v65.22c0,.56,0,1.87-.08,3.3,0,1.17-.07,2.46-.07,4.44,0,8.12,1.33,18.37,12.8,18.37H89.42c3.93,0,6.56,0,8.46-.75s3.39-2.1,5.61-5c.53-.69,1.12-1.52,2-2.71,1-1.39,2.3-3.27,4.58-6.38,7.51-10.24,27.38-36.85,27.43-36.93l.09-.1a4.93,4.93,0,0,0,.57-.88h0a4.65,4.65,0,0,0,.44-2.9,3.76,3.76,0,0,0-1.32-2.27,4.09,4.09,0,0,0-.74-.46,3.63,3.63,0,0,0-3.43.1,13.41,13.41,0,0,0-4,3.54c-1.35,1.68-3,3.84-4.64,6s-3.45,4.51-5,6.38a10,10,0,0,1-2.71,2.45,4.62,4.62,0,0,1-5.26-.1c-2.5-1.7-2.49-6.45-2.49-8.9v-.19c0-4.53,0-4.53-.08-59.28h0a3.5,3.5,0,0,0-1.19-2.58,5.13,5.13,0,0,0-6.67,0,3.5,3.5,0,0,0-1.19,2.58V80.07H92.4V40.91a10.78,10.78,0,0,1,2.26-6.6h-.28a3.5,3.5,0,0,0-1.19-2.58,5.13,5.13,0,0,0-6.67,0,3.51,3.51,0,0,0-1.21,2.57h0V45h0V80.07H77.83V44.94A5.69,5.69,0,0,0,77,41.61,1.63,1.63,0,0,0,75.59,41a4.25,4.25,0,0,0-2.88,1.06,3,3,0,0,0-1,2.16h0v10.4h0V80.07Zm0-33.8V44.21h0a10.38,10.38,0,0,1,3.45-7.69,11.73,11.73,0,0,1,7.91-3,9.94,9.94,0,0,1,2.28.25,11,11,0,0,1,3.63-7.55,12.56,12.56,0,0,1,16.73,0A11.33,11.33,0,0,1,101,30.08a12.69,12.69,0,0,1,3.42-.47,12.4,12.4,0,0,1,8.37,3.19,10.94,10.94,0,0,1,3.65,8.11h0c.07,48.18.08,54,.08,57.74l2-2.63c1.65-2.16,3.31-4.32,4.76-6.13a20.6,20.6,0,0,1,6.38-5.5,10.73,10.73,0,0,1,10.16-.16,11.5,11.5,0,0,1,2.08,1.34,11.19,11.19,0,0,1,4,6.75,12.14,12.14,0,0,1-1.09,7.58h0a12.34,12.34,0,0,1-1.34,2.12h0c-.06.08-20.95,28.07-27.4,36.87-2.15,2.93-3.5,4.85-4.49,6.26-.82,1.17-1.4,2-2.16,3-3.15,4.09-5.72,6.25-8.95,7.44s-6.31,1.21-11,1.21H69c-18.18,0-20.3-14.43-20.3-25.86,0-1.23.05-3,.1-4.65,0-.92.05-1.77.05-3.1V58a14.93,14.93,0,0,1,2.34-8.76,9.13,9.13,0,0,1,7.76-4A15.87,15.87,0,0,1,64.21,46.27Z"/></svg>