<svg id="Layer_1" data-name="Layer 1" xmlns="http://www.w3.org/2000/svg" viewBox="0 0 179.82 116.21"><defs><style>.cls-1{fill:#709957;}</style></defs><title>icon--pathways-parks</title><path class="cls-1" d="M89.91,0H145.3A3.75,3.75,0,0,1,149,3.75V16.06a3.75,3.75,0,0,1-3.75,3.75H89.91V12.31h51.64V7.49H89.91ZM34.52,0H89.91V7.49H38.27v4.82H89.91V19.8H34.52a3.75,3.75,0,0,1-3.75-3.75V3.75A3.75,3.75,0,0,1,34.52,0Z"/><path class="cls-1" d="M18.11,55.39H28.72V50.57H18.11V43.08H32.47a3.75,3.75,0,0,1,3.75,3.75V59.14a3.75,3.75,0,0,1-3.75,3.75H18.11Zm-10.61,0H18.11v7.49H3.75A3.75,3.75,0,0,1,0,59.14V46.83a3.75,3.75,0,0,1,3.75-3.75H18.11v7.49H7.49Z"/><path class="cls-1" d="M161.71,55.39h10.61V50.57H161.71V43.08h14.36a3.75,3.75,0,0,1,3.75,3.75V59.14a3.75,3.75,0,0,1-3.75,3.75H161.71Zm-10.61,0h10.61v7.49H147.35a3.75,3.75,0,0,1-3.75-3.75V46.83a3.75,3.75,0,0,1,3.75-3.75h14.36v7.49H151.1Z"/><path class="cls-1" d="M105.37,14.05a3.73,3.73,0,1,0-6.29,4l61.54,96.42a3.73,3.73,0,0,0,6.29-4Z"/><path class="cls-1" d="M80.75,18.06a3.73,3.73,0,1,0-6.29-4L12.91,110.47a3.73,3.73,0,1,0,6.29,4Z"/><path class="cls-1" d="M3.75,55.39a3.75,3.75,0,1,0,0,7.49H176.07a3.75,3.75,0,1,0,0-7.49Z"/></svg>