<svg id="Layer_1" data-name="Layer 1" xmlns="http://www.w3.org/2000/svg" viewBox="0 0 179.82 179.82"><defs><style>.cls-1,.cls-2{fill:#709957;}.cls-2{fill-rule:evenodd;}</style></defs><title>icon--parking-lots</title><path class="cls-1" d="M27.07,0H152.75a27.09,27.09,0,0,1,27.07,27.08V152.75a27.09,27.09,0,0,1-27.07,27.07H27.07A27.09,27.09,0,0,1,0,152.75V27.08A27.09,27.09,0,0,1,27.07,0ZM152.75,7.49H27.07A19.55,19.55,0,0,0,7.49,27.08V152.75a19.55,19.55,0,0,0,19.58,19.58H152.75a19.55,19.55,0,0,0,19.58-19.58V27.08A19.55,19.55,0,0,0,152.75,7.49Z"/><path class="cls-2" d="M90.3,102.84V134.9H52.45V37.46h49.12C123.3,37.46,135,47.79,135,69.77c0,9.31-1.79,17.74-8.73,24.22-7.39,6.91-17.75,8.85-27.54,8.85ZM60.36,45.38V127h22V94.92H98.75c7.62,0,16.34-1.3,22.14-6.72,5.29-4.94,6.22-11.34,6.22-18.44,0-17.53-8.12-24.4-25.53-24.4Z"/><path class="cls-2" d="M89.95,71.23l6.75,0a2.77,2.77,0,0,0-.2-3.85l-6.55-.06v3.86Zm-7.49,7.44V59.81l14.95.13c3.74,0,7.51,5,7.51,9.65s-3.79,9.2-7.58,9.18Z"/></svg>